#!OML:ASF E:\motion texture\Top Level 1\Subject 1\Session 1\male.ASF
:FULLY-SPECIFIED
:DEGREES
645
root -16.7688 17.9408 3.63105 93.8313 -87.8896 -84.9848
lowerback 0.269734 1.0752 5.74145
upperback -0.285334 1.36153 4.42499
thorax -0.41526 0.619317 1.32732
lowerneck -18.6211 -4.04472 -7.70667
upperneck -3.54284 -4.26798 6.69747
head 2.14948 -1.95284 2.98444
rclavicle 4.37326e-015 6.36111e-015
rhumerus -83.9189 -46.8573 1.74752
rradius 13.9846
rwrist 25.1864
rhand -17.5538 -52.5459
rfingers 7.12502
rthumb 8.70092 -82.3466
lclavicle 4.37326e-015 6.36111e-015
lhumerus -63.3692 30.6513 43.8939
lradius 12.8932
lwrist -60.6175
lhand 0.115405 25.1641
lfingers 7.12502
lthumb 25.7009 53.4489
rfemur -29.2106 0.219109 19.333
rtibia 17.9947
rfoot -2.27128 -8.6612
rtoes 5.88742
lfemur -6.53639 -3.93806 -16.4808
ltibia 38.5352
lfoot -5.57604 -3.63286
ltoes -17.4569
646
root -16.9112 17.954 3.60165 92.6751 -87.6885 -83.8858
lowerback 0.272677 1.12508 5.98836
upperback -0.31973 1.42619 4.51454
thorax -0.44723 0.647294 1.28238
lowerneck -18.5248 -4.12039 -7.79692
upperneck -3.42881 -4.34828 6.58635
head 2.1737 -1.99436 2.95802
rclavicle -1.37161e-014 -4.45278e-014
rhumerus -84.2831 -47.5622 2.09914
rradius 13.8873
rwrist 25.4206
rhand -17.3723 -52.6269
rfingers 7.12502
rthumb 8.87605 -82.4202
lclavicle -1.37161e-014 -4.45278e-014
lhumerus -62.4763 30.4049 45.0473
lradius 13.0668
lwrist -59.6386
lhand -0.189013 25.146
lfingers 7.12502
lthumb 25.4093 53.4727
rfemur -28.7111 0.204492 19.7294
rtibia 18.13
rfoot -2.39366 -8.34261
rtoes 6.27952
lfemur -7.205 -3.72548 -16.0871
ltibia 39.8608
lfoot -4.88787 -3.66156
ltoes -17.2832
647
root -17.0529 17.9673 3.57216 91.8108 -87.483 -83.0875
lowerback 0.273247 1.17733 6.23389
upperback -0.356523 1.49405 4.6013
thorax -0.479925 0.676682 1.23549
lowerneck -18.4178 -4.19803 -7.889
upperneck -3.30811 -4.43165 6.48055
head 2.19883 -2.03732 2.93336
rclavicle -4.96962e-015 7.95139e-015
rhumerus -84.5287 -48.3423 2.27253
rradius 13.7969
rwrist 25.5753
rhand -17.1695 -52.6919
rfingers 7.12502
rthumb 9.07174 -82.4768
lclavicle -4.96962e-015 7.95139e-015
lhumerus -61.4972 30.135 46.3122
lradius 13.2568
lwrist -58.6265
lhand -0.527251 25.1208
lfingers 7.12502
lthumb 25.0853 53.4932
rfemur -28.1876 0.197358 20.1276
rtibia 18.2422
rfoot -2.53219 -8.04072
rtoes 6.67929
lfemur -7.8985 -3.5033 -15.6918
ltibia 41.1779
lfoot -4.23794 -3.66679
ltoes -17.0959
648
root -17.1936 17.9807 3.54263 91.1573 -87.2739 -82.5094
lowerback 0.269702 1.23146 6.47799
upperback -0.39373 1.56412 4.68481
thorax -0.510306 0.707086 1.18627
lowerneck -18.3001 -4.27752 -7.98626
upperneck -3.18262 -4.51746 6.38486
head 2.2245 -2.08123 2.91256
rclavicle 6.55989e-015 -2.38542e-014
rhumerus -84.6269 -49.1975 2.23501
rradius 13.7143
rwrist 25.6345
rhand -16.9468 -52.7407
rfingers 7.12502
rthumb 9.28666 -82.5161
lclavicle 6.55989e-015 -2.38542e-014
lhumerus -60.4302 29.832 47.6914
lradius 13.466
lwrist -57.572
lhand -0.888357 25.0937
lfingers 7.12502
lthumb 24.7392 53.514
rfemur -27.6401 0.196144 20.5267
rtibia 18.3306
rfoot -2.68744 -7.75608
rtoes 7.07918
lfemur -8.61316 -3.27312 -15.2966
ltibia 42.4785
lfoot -3.63153 -3.65048
ltoes -16.893
649
root -17.3333 17.9941 3.51311 90.6608 -87.0624 -82.0965
lowerback 0.263548 1.28717 6.71937
upperback -0.432965 1.6363 4.76485
thorax -0.540901 0.73839 1.13517
lowerneck -18.1761 -4.35967 -8.08145
upperneck -3.04704 -4.60777 6.29055
head 2.25266 -2.12742 2.89148
rclavicle -7.7526e-015 -5.08889e-014
rhumerus -84.535 -50.12 1.93826
rradius 13.6416
rwrist 25.5729
rhand -16.7081 -52.7758
rfingers 7.12502
rthumb 9.51701 -82.5409
lclavicle -7.7526e-015 -5.08889e-014
lhumerus -59.2796 29.4817 49.183
lradius 13.6971
lwrist -56.4709
lhand -1.27184 25.0641
lfingers 7.12502
lthumb 24.3716 53.5343
rfemur -27.0705 0.201385 20.9254
rtibia 18.3931
rfoot -2.85564 -7.49121
rtoes 7.4729
lfemur -9.3481 -3.03622 -14.9029
ltibia 43.7571
lfoot -3.07633 -3.61347
ltoes -16.6828
